<?xml version="1.0" standalone="no"?>
<!DOCTYPE svg PUBLIC "-//W3C//DTD SVG 20010904//EN"
 "http://www.w3.org/TR/2001/REC-SVG-20010904/DTD/svg10.dtd">
<svg version="1.0" xmlns="http://www.w3.org/2000/svg"
 width="4000.000000pt" height="4000.000000pt" viewBox="0 0 4000.000000 4000.000000"
 preserveAspectRatio="xMidYMid meet">
<metadata>
Created by potrace 1.14, written by Peter Selinger 2001-2017
</metadata>
<g transform="translate(0.000000,4000.000000) scale(0.100000,-0.100000)"
fill="#000000" stroke="none">
<path d="M19470 36533 c-1425 -51 -2706 -253 -4050 -639 -2346 -674 -4537
-1878 -6375 -3504 -552 -488 -1189 -1139 -1660 -1695 -1372 -1619 -2420 -3482
-3085 -5485 -446 -1343 -714 -2712 -810 -4140 -41 -624 -41 -1519 0 -2140 218
-3238 1352 -6293 3296 -8876 742 -987 1665 -1958 2609 -2744 2346 -1955 5110
-3202 8125 -3665 514 -79 1019 -130 1645 -167 289 -17 1386 -17 1670 0 505 30
834 59 1220 108 3191 402 6184 1718 8640 3799 567 480 1277 1179 1766 1740
2392 2743 3817 6197 4049 9815 42 653 41 1491 0 2125 -209 3159 -1298 6153
-3169 8710 -766 1048 -1708 2053 -2711 2894 -2713 2277 -6078 3623 -9600 3841
-425 26 -1173 37 -1560 23z m1330 -6167 c1119 -91 2198 -352 3210 -776 1598
-671 3007 -1731 4090 -3080 1373 -1710 2163 -3784 2280 -5985 13 -244 13 -806
0 -1050 -118 -2212 -914 -4292 -2302 -6012 -299 -371 -803 -902 -1138 -1200
-892 -792 -1862 -1405 -2930 -1853 -1094 -458 -2241 -721 -3444 -790 -230 -13
-902 -13 -1132 0 -2534 145 -4905 1190 -6703 2955 -1875 1842 -2972 4275
-3111 6900 -13 244 -13 806 0 1050 117 2208 917 4300 2301 6012 317 391 825
923 1179 1234 903 794 1862 1394 2940 1839 1021 423 2173 693 3240 760 91 6
188 12 215 14 144 10 1124 -3 1305 -18z"/>
<path d="M19660 25244 c-353 -31 -617 -73 -909 -145 -2009 -496 -3548 -2124
-3920 -4149 -96 -518 -113 -1061 -51 -1573 199 -1630 1135 -3058 2555 -3898
633 -375 1327 -608 2087 -701 161 -19 231 -22 578 -22 434 0 576 11 923 74
1878 339 3447 1687 4055 3485 517 1529 306 3200 -575 4550 -107 163 -281 395
-409 545 -131 154 -419 441 -578 576 -805 685 -1767 1105 -2831 1235 -136 16
-242 21 -525 24 -195 1 -375 1 -400 -1z"/>
<path d="M3492 21360 c0 -14 2 -19 5 -12 2 6 2 18 0 25 -3 6 -5 1 -5 -13z"/>
<path d="M36502 21355 c0 -16 2 -22 5 -12 2 9 2 23 0 30 -3 6 -5 -1 -5 -18z"/>
<path d="M3443 20420 c0 -41 2 -58 4 -37 2 20 2 54 0 75 -2 20 -4 3 -4 -38z"/>
<path d="M36554 20395 c0 -49 1 -71 3 -48 2 23 2 64 0 90 -2 26 -3 8 -3 -42z"/>
<path d="M36554 19605 c0 -49 1 -71 3 -48 2 23 2 64 0 90 -2 26 -3 8 -3 -42z"/>
<path d="M3443 19585 c0 -44 2 -61 4 -37 2 23 2 59 0 80 -2 20 -4 1 -4 -43z"/>
<path d="M3492 18640 c0 -14 2 -19 5 -12 2 6 2 18 0 25 -3 6 -5 1 -5 -13z"/>
<path d="M36502 18640 c0 -14 2 -19 5 -12 2 6 2 18 0 25 -3 6 -5 1 -5 -13z"/>
</g>
</svg>
